<svg width="8" height="8" viewBox="0 0 8 8" fill="none" xmlns="http://www.w3.org/2000/svg">
<path d="M3.97528 2.1437C3.04962 2.1437 2.30298 2.8865 2.30298 3.80739C2.30298 4.72828 3.04962 5.47108 3.97528 5.47108C4.90094 5.47108 5.64758 4.72828 5.64758 3.80739C5.64758 2.8865 4.90094 2.1437 3.97528 2.1437ZM3.97528 4.88901C3.37709 4.88901 2.88806 4.40394 2.88806 3.80739C2.88806 3.21084 3.37564 2.72578 3.97528 2.72578C4.57492 2.72578 5.0625 3.21084 5.0625 3.80739C5.0625 4.40394 4.57347 4.88901 3.97528 4.88901ZM6.10605 2.07565C6.10605 2.29139 5.9314 2.4637 5.71599 2.4637C5.49913 2.4637 5.32593 2.28995 5.32593 2.07565C5.32593 1.86136 5.50058 1.6876 5.71599 1.6876C5.9314 1.6876 6.10605 1.86136 6.10605 2.07565ZM7.21364 2.46949C7.1889 1.94968 7.06955 1.48923 6.68677 1.10987C6.30544 0.730511 5.84261 0.61178 5.32011 0.585717C4.7816 0.55531 3.16751 0.55531 2.62899 0.585717C2.10795 0.610332 1.64512 0.729063 1.26233 1.10842C0.879552 1.48779 0.761661 1.94823 0.735463 2.46804C0.704899 3.00378 0.704899 4.60955 0.735463 5.14529C0.760205 5.6651 0.879552 6.12555 1.26233 6.50491C1.64512 6.88427 2.10649 7.003 2.62899 7.02907C3.16751 7.05947 4.7816 7.05947 5.32011 7.02907C5.84261 7.00445 6.30544 6.88572 6.68677 6.50491C7.0681 6.12555 7.18744 5.6651 7.21364 5.14529C7.24421 4.60955 7.24421 3.00523 7.21364 2.46949ZM6.51794 5.72012C6.40441 6.00392 6.18464 6.22256 5.89792 6.33695C5.46856 6.50636 4.44975 6.46726 3.97528 6.46726C3.50081 6.46726 2.48054 6.50491 2.05264 6.33695C1.76737 6.22401 1.5476 6.00537 1.43262 5.72012C1.26233 5.29298 1.30163 4.27942 1.30163 3.80739C1.30163 3.33536 1.26379 2.32035 1.43262 1.89466C1.54614 1.61086 1.76592 1.39222 2.05264 1.27783C2.48199 1.10842 3.50081 1.14752 3.97528 1.14752C4.44975 1.14752 5.47002 1.10987 5.89792 1.27783C6.18319 1.39077 6.40296 1.60941 6.51794 1.89466C6.68823 2.3218 6.64893 3.33536 6.64893 3.80739C6.64893 4.27942 6.68823 5.29443 6.51794 5.72012Z" fill="white"/>
</svg>
