<svg width="8" height="7" viewBox="0 0 8 7" fill="none" xmlns="http://www.w3.org/2000/svg">
<g clip-path="url(#clip0_1_2081)">
<path d="M2.42491 6.69154V2.52332H1.02698V6.69154H2.42491ZM1.72613 1.95388C2.21361 1.95388 2.51705 1.63381 2.51705 1.23383C2.50796 0.824828 2.21363 0.513641 1.73538 0.513641C1.2572 0.513641 0.944504 0.824834 0.944504 1.23383C0.944504 1.63383 1.24786 1.95388 1.717 1.95388H1.72608H1.72613ZM3.19866 6.69154H4.5966V4.36381C4.5966 4.23923 4.60568 4.11478 4.64259 4.02573C4.74365 3.77682 4.97367 3.51903 5.35984 3.51903C5.86569 3.51903 6.06806 3.90127 6.06806 4.46161V6.69151H7.4659V4.30149C7.4659 3.02118 6.77624 2.42547 5.85648 2.42547C5.10236 2.42547 4.77124 2.84323 4.58729 3.12776H4.59663V2.52324H3.19869C3.21704 2.91436 3.19869 6.69146 3.19869 6.69146L3.19866 6.69154Z" fill="white"/>
</g>
<defs>
<clipPath id="clip0_1_2081">
<rect width="6.58976" height="6.1779" fill="white" transform="translate(0.961761 0.513905)"/>
</clipPath>
</defs>
</svg>
