<svg width="9" height="7" viewBox="0 0 9 7" fill="none" xmlns="http://www.w3.org/2000/svg">
<path d="M8.10317 1.62814C7.82848 1.74531 7.53713 1.82221 7.23879 1.8563C7.54954 1.67697 7.78815 1.393 7.9005 1.05466C7.60509 1.22344 7.28189 1.34236 6.94486 1.40627C6.67032 1.12468 6.27922 0.948689 5.84635 0.948689C5.01521 0.948689 4.34135 1.59746 4.34135 2.39765C4.34135 2.51123 4.35467 2.6218 4.38032 2.72788C3.12957 2.66744 2.02066 2.09058 1.27837 1.21393C1.14886 1.42793 1.07464 1.67686 1.07464 1.94238C1.07464 2.4451 1.34035 2.88859 1.74415 3.14844C1.50516 3.14124 1.27143 3.07909 1.06247 2.96719C1.06238 2.97326 1.06238 2.97933 1.06238 2.98542C1.06238 3.68747 1.58113 4.27312 2.26958 4.40624C2.04796 4.46427 1.8155 4.47276 1.58996 4.43107C1.78145 5.00673 2.33726 5.42564 2.99578 5.43737C2.48073 5.82598 1.8318 6.05764 1.12674 6.05764C1.00524 6.05764 0.88547 6.05077 0.767731 6.03739C1.43374 6.44852 2.22479 6.6884 3.07467 6.6884C5.84285 6.6884 7.35656 4.48045 7.35656 2.56569C7.35656 2.50284 7.35513 2.44035 7.3522 2.37822C7.64683 2.17315 7.90113 1.91915 8.10317 1.62814Z" fill="white"/>
</svg>
