<svg width="20" height="20" viewBox="0 0 10 9" fill="none" xmlns="http://www.w3.org/2000/svg">
<path d="M5.00313 0.422667C5.06478 0.232942 5.33319 0.232942 5.39483 0.422668L6.26237 3.09266C6.28994 3.17751 6.36901 3.23496 6.45822 3.23496H9.26562C9.46511 3.23496 9.54805 3.49023 9.38666 3.60749L7.11543 5.25764C7.04325 5.31007 7.01305 5.40302 7.04062 5.48787L7.90815 8.15787C7.9698 8.34759 7.75265 8.50536 7.59126 8.3881L5.32003 6.73796C5.24785 6.68552 5.15012 6.68552 5.07794 6.73796L2.80671 8.3881C2.64532 8.50536 2.42817 8.34759 2.48981 8.15787L3.35735 5.48787C3.38492 5.40302 3.35472 5.31007 3.28254 5.25764L1.01131 3.60749C0.849916 3.49023 0.93286 3.23496 1.13235 3.23496H3.93975C4.02896 3.23496 4.10803 3.17751 4.1356 3.09266L5.00313 0.422667Z" fill="#F1CC4A"/>
</svg>
